<svg width="58" height="82" viewBox="0 0 58 82" fill="none" xmlns="http://www.w3.org/2000/svg">
<g filter="url(#filter0_i_5_30)">
<path d="M55.7812 8.25H44.625V4.96875C44.625 4.44661 44.4176 3.94585 44.0484 3.57663C43.6792 3.20742 43.1784 3 42.6562 3H15.0938C14.5716 3 14.0708 3.20742 13.7016 3.57663C13.3324 3.94585 13.125 4.44661 13.125 4.96875V8.25H1.96875C1.44661 8.25 0.945846 8.45742 0.576634 8.82663C0.207421 9.19585 0 9.69661 0 10.2188V79.7812C0 80.3034 0.207421 80.8042 0.576634 81.1734C0.945846 81.5426 1.44661 81.75 1.96875 81.75H55.7812C56.3034 81.75 56.8042 81.5426 57.1734 81.1734C57.5426 80.8042 57.75 80.3034 57.75 79.7812V10.2188C57.75 9.69661 57.5426 9.19585 57.1734 8.82663C56.8042 8.45742 56.3034 8.25 55.7812 8.25Z" fill="#27773A"/>
</g>
<path d="M48 5.08129V14H10V5.08129C10 3.73364 10.2502 2.4412 10.6956 1.48827C11.141 0.535348 11.7451 0 12.375 0H45.625C46.2549 0 46.859 0.535348 47.3044 1.48827C47.7498 2.4412 48 3.73364 48 5.08129Z" fill="#144520"/>
<path d="M14.4773 33.4752C14.4773 32.2011 14.9183 31.1611 15.8004 30.3552C16.6934 29.5602 17.777 29.2281 19.0511 29.3588C20.2926 29.4894 21.3544 30.0503 22.2365 31.0413C23.1186 32.0432 23.5597 33.1812 23.5597 34.4553C23.5597 35.6641 23.1186 36.6715 22.2365 37.4774C21.3544 38.2941 20.2926 38.6372 19.0511 38.5065C18.2017 38.4194 17.4285 38.1199 16.7315 37.608C16.0455 37.1071 15.4955 36.4864 15.0817 35.7458C14.6787 35.0162 14.4773 34.2593 14.4773 33.4752ZM31.3352 36.2849C31.3352 35.0107 31.7763 33.9707 32.6584 33.1649C33.5514 32.3699 34.6349 32.0377 35.9091 32.1684C37.1506 32.2991 38.2124 32.8599 39.0945 33.8509C39.9766 34.8528 40.4176 35.9909 40.4176 37.265C40.4176 38.4738 39.9766 39.4811 39.0945 40.287C38.2124 41.1038 37.1506 41.4468 35.9091 41.3161C35.0597 41.229 34.2865 40.9295 33.5895 40.4177C32.9034 39.9168 32.3535 39.296 31.9396 38.5555C31.5367 37.8258 31.3352 37.069 31.3352 36.2849ZM48.4545 61.8332L7.42045 55.0377L7.42045 40.0093L13.9545 41.1201L13.9545 47.3928L41.9205 51.9667L41.9205 45.694L48.4545 46.8048L48.4545 61.8332Z" fill="black"/>
<defs>
<filter id="filter0_i_5_30" x="0" y="3" width="57.75" height="78.75" filterUnits="userSpaceOnUse" color-interpolation-filters="sRGB">
<feFlood flood-opacity="0" result="BackgroundImageFix"/>
<feBlend mode="normal" in="SourceGraphic" in2="BackgroundImageFix" result="shape"/>
<feColorMatrix in="SourceAlpha" type="matrix" values="0 0 0 0 0 0 0 0 0 0 0 0 0 0 0 0 0 0 127 0" result="hardAlpha"/>
<feOffset dy="-4"/>
<feComposite in2="hardAlpha" operator="arithmetic" k2="-1" k3="1"/>
<feColorMatrix type="matrix" values="0 0 0 0 0.235197 0 0 0 0 0.608974 0 0 0 0 0.323969 0 0 0 1 0"/>
<feBlend mode="normal" in2="shape" result="effect1_innerShadow_5_30"/>
</filter>
</defs>
</svg>
