<svg width="59" height="47" viewBox="0 0 59 47" fill="none" xmlns="http://www.w3.org/2000/svg">
<path d="M4.375 46.6667C3.20833 46.6667 2.1875 46.217 1.3125 45.3177C0.4375 44.4184 0 43.4097 0 42.2917V4.375C0 3.25694 0.4375 2.24826 1.3125 1.34896C2.1875 0.449653 3.20833 0 4.375 0H24.8646L29.2396 4.375H53.9583C55.0764 4.375 56.0851 4.82465 56.9844 5.72396C57.8837 6.62326 58.3333 7.63194 58.3333 8.75V42.2917C58.3333 43.4097 57.8837 44.4184 56.9844 45.3177C56.0851 46.217 55.0764 46.6667 53.9583 46.6667H4.375Z" fill="white"/>
<path d="M32.7554 32.8894L32.8053 37.6732L30.961 39.5176L25.0593 33.6159L17.6511 41.024L15.8858 41.1031L15.9649 39.3378L23.3731 31.9297L17.4714 26.028L19.3158 24.1836L23.931 24.0649L34.1672 13.8287L32.762 12.4236L34.6064 10.5792L46.2411 22.214L44.3968 24.0583L42.9916 22.6532L32.7554 32.8894Z" fill="black" fill-opacity="0.2"/>
</svg>
